<?xml version="1.0" encoding="utf-8"?>
<!-- Generator: Adobe Illustrator 27.5.0, SVG Export Plug-In . SVG Version: 6.00 Build 0)  -->
<svg version="1.1" xmlns="http://www.w3.org/2000/svg" xmlns:xlink="http://www.w3.org/1999/xlink" x="0px" y="0px"
	 viewBox="0 0 500 500" style="enable-background:new 0 0 500 500;" xml:space="preserve">
<g id="Floor">
	<path id="Floor_21_" style="opacity:0.7;fill:#F5F5F5;" d="M91.432,411.497c87.575,43.87,229.563,43.871,317.137,0.001
		c87.576-43.872,87.576-114.999,0-158.87c-87.575-43.871-229.563-43.871-317.138-0.001C3.856,296.498,3.856,367.627,91.432,411.497z
		"/>
</g>
<g id="Cabinet_1_">
	<g id="Cabinet">
		<g id="XMLID_3134_">
			<g id="XMLID_3143_">
				<polygon id="XMLID_3184_" style="fill:#E0E0E0;" points="401.856,261.192 366.729,240.912 366.728,165.584 401.855,185.865 				
					"/>
			</g>
			<g id="XMLID_3142_">
				<polygon id="XMLID_3182_" style="fill:#EBEBEB;" points="401.855,185.865 452.036,156.893 452.037,232.221 401.856,261.192 				
					"/>
			</g>
			<g id="XMLID_14367_">
				<polygon id="XMLID_3180_" style="fill:#F5F5F5;" points="452.036,156.893 401.855,185.865 366.728,165.584 416.909,136.612 				
					"/>
			</g>
			<g id="XMLID_3140_">
				<g id="XMLID_14366_">
					<polygon id="XMLID_3178_" style="fill:#E6E6E6;" points="406.874,188.762 447.019,165.584 447.942,166.118 447.941,194.019 
						407.796,217.196 406.873,216.662 					"/>
				</g>
				<g id="XMLID_3141_">
					<path id="XMLID_3176_" style="fill:#E6E6E6;" d="M423.533,184.939l6.827-3.942c0.886-0.512,1.605-0.278,1.605,0.522
						c0,0.8-0.718,1.864-1.605,2.375l-6.828,3.942c-0.886,0.512-1.605,0.278-1.604-0.522
						C421.928,186.514,422.647,185.45,423.533,184.939z"/>
				</g>
			</g>
			<g id="XMLID_3136_">
				<g id="XMLID_3139_">
					<polygon id="XMLID_3173_" style="fill:#E0E0E0;" points="405.951,224.067 446.096,200.889 446.094,228.79 447.017,229.324 
						406.873,252.501 405.949,251.967 					"/>
				</g>
				<g id="XMLID_3138_">
					<polygon id="XMLID_3171_" style="fill:#F5F5F5;" points="406.874,224.6 447.019,201.423 447.017,229.324 406.873,252.501 					
						"/>
				</g>
				<g id="XMLID_3137_">
					<path id="XMLID_3169_" style="fill:#E6E6E6;" d="M422.609,220.244l6.827-3.942c0.886-0.512,1.605-0.278,1.605,0.522
						c0,0.8-0.719,1.864-1.605,2.375l-6.828,3.941c-0.886,0.512-1.605,0.278-1.604-0.522
						C421.004,221.819,421.723,220.755,422.609,220.244z"/>
				</g>
			</g>
		</g>
		<g id="XMLID_368_">
			<g id="XMLID_982_">
				<polygon id="XMLID_3165_" style="fill:#E0E0E0;" points="406.874,188.761 447.019,165.583 447.017,193.485 406.872,216.662 				
					"/>
			</g>
			<g id="XMLID_941_">
				<polygon id="XMLID_3163_" style="fill:#E6E6E6;" points="467.092,179.368 445.117,166.684 445.116,191.265 467.09,203.949 				
					"/>
			</g>
			<g id="XMLID_938_">
				<g id="XMLID_940_">
					<polygon id="XMLID_3161_" style="fill:#EBEBEB;" points="421.928,220.631 421.928,185.864 430.543,180.874 431.964,182.967 
						457.055,168.481 457.055,200.35 					"/>
				</g>
				<g id="XMLID_939_">
					<polygon id="XMLID_3159_" style="fill:#FAFAFA;" points="421.928,220.631 424.436,190.21 459.564,169.93 457.055,200.35 					
						"/>
				</g>
			</g>
			<g id="XMLID_937_">
				<polygon id="XMLID_3156_" style="fill:#E6E6E6;" points="426.946,202.546 407.794,191.489 407.793,216.069 426.945,227.126 				
					"/>
			</g>
			<g id="XMLID_936_">
				<polygon id="XMLID_3154_" style="fill:#F5F5F5;" points="426.946,200.35 467.091,177.172 467.09,205.074 426.945,228.251 				
					"/>
			</g>
			<g id="XMLID_933_">
				<path id="XMLID_3152_" style="fill:#E6E6E6;" d="M442.682,195.993l6.827-3.942c0.886-0.512,1.605-0.278,1.605,0.522
					c0,0.8-0.718,1.864-1.605,2.375l-6.828,3.941c-0.886,0.512-1.605,0.278-1.604-0.522
					C441.077,197.568,441.795,196.505,442.682,195.993z"/>
			</g>
			<g id="XMLID_901_">
				<polygon id="XMLID_3150_" style="fill:#E0E0E0;" points="426.946,200.35 425.608,199.578 425.608,227.478 426.947,228.251 				
					"/>
			</g>
			<g id="XMLID_884_">
				<polygon id="XMLID_3148_" style="fill:#F0F0F0;" points="425.608,199.578 465.753,176.4 467.091,177.172 426.946,200.35 				"/>
			</g>
		</g>
	</g>
</g>
<g id="Plants">
	<g id="Plant_1_">
		<g id="XMLID_15586_">
			<path id="XMLID_15588_" style="fill:#27DEBF;" d="M378.633,267.252c0.233-5.776,4.785-17.94,11.08-25.198
				c6.295-7.258,16.171-11.831,22.772-9.272c6.148,2.384,5.144,10.536-2.638,15.651c-7.782,5.115-19.427,11.466-23.13,20.701
				l-7.442,11.214L378.633,267.252z"/>
			<path id="XMLID_985_" style="opacity:0.1;" d="M378.633,267.252c0.233-5.776,4.785-17.94,11.08-25.198
				c6.295-7.258,16.171-11.831,22.772-9.272c6.148,2.384,5.144,10.536-2.638,15.651c-7.782,5.115-19.427,11.466-23.13,20.701
				l-7.442,11.214L378.633,267.252z"/>
			<path id="XMLID_15587_" style="fill:none;stroke:#FFFFFF;stroke-width:1.0259;stroke-linecap:round;stroke-miterlimit:10;" d="
				M410.052,235.599c-7.477,1.737-28.996,16.832-31.03,38.418"/>
		</g>
		<g id="XMLID_15570_">
			<path id="XMLID_15585_" style="fill:#27DEBF;" d="M380.531,290.184c0.344-5.972,5.459-10.326,12.187-14.271
				c7.988-4.684,14.901-6.794,17.334-11.405c2.433-4.611-1.924-9.823-10.175-7.064c-6.971,2.33-20.504,14.316-20.602,22.904
				L380.531,290.184z"/>
			<path id="XMLID_15584_" style="fill:none;stroke:#FFFFFF;stroke-linecap:round;stroke-miterlimit:10;" d="M404.826,261.099
				c-11.047,2.529-23.396,12.576-25.058,23.113"/>
		</g>
	</g>
</g>
<g id="Folder_2_">
	<g id="Folder_1_">
		<g id="XMLID_3087_">
			<polygon id="XMLID_3092_" style="fill:#263238;" points="71.537,199.125 71.537,372.917 249.411,270.222 249.41,112.229 
				117.146,188.592 112.585,175.426 			"/>
		</g>
		<g id="XMLID_3086_">
			<polygon id="XMLID_3090_" style="fill:#FFFFFF;" points="71.537,372.917 80.658,214.924 258.531,112.229 249.411,270.222 			"/>
		</g>
		<g id="XMLID_3085_">
			<polygon id="XMLID_3083_" style="fill:#37474F;" points="71.537,372.917 85.219,217.557 263.091,114.862 249.411,270.222 			"/>
		</g>
	</g>
</g>
<g id="Resumes">
	<g id="Folder">
		<g id="XMLID_987_">
			<g id="XMLID_3084_">
				<polygon id="XMLID_3080_" style="fill:#27DEBF;" points="119.065,232.887 119.065,406.679 296.939,303.984 296.938,145.991 
					164.674,222.354 160.113,209.188 				"/>
			</g>
			<g id="XMLID_3070_" style="opacity:0.1;">
				<polygon id="XMLID_3089_" points="119.065,232.887 119.065,406.679 296.939,303.984 296.938,145.991 164.674,222.354 
					160.113,209.188 				"/>
			</g>
		</g>
		<g id="Document_1_">
			<g id="XMLID_3067_">
				<path id="XMLID_3068_" style="fill:#EBEBEB;" d="M183.657,345.974c-1.018-0.588-1.843-2.08-1.843-3.333V125.838
					c0-1.253,0.88-2.777,1.965-3.403L319.926,43.83c1.085-0.626,2.79-0.658,3.808-0.07c1.018,0.588,1.843,2.08,1.843,3.333
					l0.001,216.803c0,1.253-0.88,2.776-1.965,3.403l-136.148,78.605C186.38,346.53,184.675,346.561,183.657,345.974z"/>
			</g>
			<g id="XMLID_3065_">
				<path id="XMLID_3066_" style="fill:#EBEBEB;" d="M185.498,129.955l55.295-36.181l-3.687-2.128l-53.328,30.789
					c-1.085,0.626-1.965,2.15-1.965,3.403v1.989L185.498,129.955z"/>
			</g>
			<g id="XMLID_3063_">
				<path id="XMLID_3064_" style="fill:#E0E0E0;" d="M203.93,136.339l-21.541-12.437c-0.355,0.616-0.575,1.31-0.575,1.936v216.802
					c0,1.253,0.825,2.745,1.843,3.333c1.018,0.588,2.723,0.556,3.808-0.07l16.465-9.506L203.93,136.339z"/>
			</g>
			<g id="XMLID_3061_">
				<path id="XMLID_3062_" style="fill:#E6E6E6;" d="M187.465,345.904l136.148-78.605c1.085-0.627,1.965-2.15,1.965-3.403
					l-0.001-216.803c0-1.253-0.88-1.761-1.965-1.134l-136.148,78.605c-1.085,0.626-1.965,2.15-1.965,3.403l0.001,216.802
					C185.5,346.022,186.38,346.53,187.465,345.904z"/>
			</g>
			<g id="XMLID_3058_">
				<defs>
					<path id="XMLID_3060_" d="M211.303,119.253c-10.179,5.74-18.431,20.033-18.431,31.924c0,11.891,8.252,16.766,18.431,10.889
						c10.179-5.877,18.432-20.17,18.431-31.924C229.734,118.388,221.482,113.513,211.303,119.253z"/>
				</defs>
				<clipPath id="XMLID_00000044171407643288753270000005193843516944877454_">
					<use xlink:href="#XMLID_3060_"  style="overflow:visible;"/>
				</clipPath>
			</g>
			<g id="XMLID_3056_">
				<path id="XMLID_3057_" style="fill:#F5F5F5;" d="M196.801,178.044l32.69-18.873c2.17-1.253,3.929-0.363,3.929,1.988
					c0,2.351-1.759,5.272-3.929,6.525l-32.69,18.874c-2.17,1.253-3.93,0.363-3.93-1.988S194.631,179.297,196.801,178.044z"/>
			</g>
			<g id="XMLID_3051_">
				<g id="XMLID_3054_">
					<path id="XMLID_3055_" style="fill:#FAFAFA;" d="M194.444,212.549l4.229-2.442c0.868-0.501,1.572-0.095,1.572,0.908v4.883
						c0,1.002-0.704,2.221-1.572,2.722l-4.229,2.441c-0.868,0.501-1.572,0.095-1.572-0.907v-4.883
						C192.872,214.269,193.576,213.05,194.444,212.549z"/>
				</g>
				<g id="XMLID_3052_">
					<path id="XMLID_3053_" style="fill:#F5F5F5;" d="M205.896,208.065l25.56-14.757c1.085-0.627,1.965-0.182,1.965,0.994
						c0,1.175-0.88,2.636-1.965,3.263l-25.561,14.757c-1.085,0.626-1.965,0.182-1.965-0.994
						C203.931,210.153,204.811,208.692,205.896,208.065z"/>
				</g>
			</g>
			<g id="XMLID_3046_">
				<g id="XMLID_3049_">
					<path id="XMLID_3050_" style="fill:#FAFAFA;" d="M194.444,229.576l4.229-2.442c0.868-0.501,1.572-0.095,1.572,0.908v4.883
						c0,1.002-0.704,2.221-1.572,2.723l-4.229,2.441c-0.868,0.501-1.572,0.095-1.572-0.908v-4.883
						C192.872,231.296,193.576,230.077,194.444,229.576z"/>
				</g>
				<g id="XMLID_3047_">
					<path id="XMLID_3048_" style="fill:#F5F5F5;" d="M205.896,225.092l25.56-14.757c1.085-0.627,1.965-0.182,1.965,0.994
						c0,1.175-0.88,2.636-1.965,3.263l-25.561,14.757c-1.085,0.626-1.965,0.182-1.965-0.994
						C203.931,227.18,204.811,225.719,205.896,225.092z"/>
				</g>
			</g>
			<g id="XMLID_3040_">
				<g id="XMLID_3043_">
					<path id="XMLID_3045_" style="fill:#FAFAFA;" d="M194.444,246.601l4.229-2.442c0.868-0.501,1.572-0.095,1.572,0.908v4.883
						c0,1.002-0.704,2.221-1.572,2.723l-4.229,2.441c-0.868,0.501-1.572,0.095-1.572-0.908v-4.883
						C192.872,248.321,193.576,247.102,194.444,246.601z"/>
				</g>
				<g id="XMLID_3041_">
					<path id="XMLID_3042_" style="fill:#F5F5F5;" d="M205.896,242.118l25.56-14.757c1.085-0.626,1.965-0.182,1.965,0.994
						c0,1.175-0.88,2.636-1.965,3.263l-25.561,14.757c-1.085,0.627-1.965,0.182-1.965-0.994
						C203.931,244.205,204.811,242.744,205.896,242.118z"/>
				</g>
			</g>
			<g id="XMLID_3035_">
				<g id="XMLID_3038_">
					<path id="XMLID_3039_" style="fill:#FAFAFA;" d="M194.444,263.672l4.229-2.442c0.868-0.501,1.572-0.095,1.572,0.907v4.883
						c0,1.002-0.704,2.221-1.572,2.722l-4.229,2.442c-0.868,0.501-1.572,0.095-1.572-0.908v-4.883
						C192.872,265.392,193.576,264.173,194.444,263.672z"/>
				</g>
				<g id="XMLID_3036_">
					<path id="XMLID_3037_" style="fill:#F5F5F5;" d="M205.896,259.188l25.56-14.757c1.085-0.626,1.965-0.182,1.965,0.994
						c0,1.175-0.88,2.636-1.965,3.263l-25.561,14.757c-1.085,0.626-1.965,0.182-1.965-0.994
						C203.931,261.276,204.811,259.815,205.896,259.188z"/>
				</g>
			</g>
			<g id="XMLID_3033_">
				<path id="XMLID_3034_" style="fill:#F5F5F5;" d="M194.837,299.269l18.188-10.501c1.085-0.626,1.965-0.181,1.965,0.994
					c0,1.175-0.88,2.636-1.965,3.263l-18.188,10.501c-1.085,0.626-1.965,0.181-1.965-0.994
					C192.872,301.357,193.752,299.896,194.837,299.269z"/>
			</g>
			<g id="XMLID_3030_">
				<path id="XMLID_3032_" style="fill:#F0F0F0;" d="M194.837,307.782l36.619-21.142c1.085-0.626,1.965-0.181,1.965,0.994
					c0,1.175-0.88,2.636-1.965,3.263l-36.619,21.142c-1.085,0.627-1.965,0.182-1.965-0.994
					C192.872,309.87,193.752,308.409,194.837,307.782z"/>
			</g>
			<g id="XMLID_3026_">
				<path id="XMLID_3028_" style="fill:#FAFAFA;" d="M194.837,307.782l25.561-14.758c1.085-0.626,1.965-0.181,1.964,0.994
					c0,1.176-0.88,2.636-1.965,3.263l-25.56,14.757c-1.085,0.627-1.965,0.182-1.965-0.994
					C192.872,309.87,193.752,308.409,194.837,307.782z"/>
			</g>
			<g id="XMLID_3023_">
				<path id="XMLID_3024_" style="fill:#F5F5F5;" d="M194.837,316.286l18.188-10.501c1.085-0.627,1.965-0.182,1.965,0.994
					c0,1.175-0.88,2.636-1.965,3.263l-18.188,10.501c-1.085,0.627-1.965,0.182-1.965-0.994
					C192.872,318.373,193.752,316.912,194.837,316.286z"/>
			</g>
			<g id="XMLID_3021_">
				<path id="XMLID_3022_" style="fill:#F5F5F5;" d="M194.837,282.253l18.188-10.501c1.085-0.626,1.965-0.182,1.965,0.994
					c0,1.175-0.88,2.636-1.965,3.263l-18.188,10.501c-1.085,0.626-1.965,0.182-1.965-0.994
					C192.872,284.34,193.752,282.879,194.837,282.253z"/>
			</g>
			<g id="XMLID_3019_">
				<path id="XMLID_3020_" style="fill:#F0F0F0;" d="M194.837,290.766l36.619-21.142c1.085-0.626,1.965-0.182,1.965,0.994
					c0,1.175-0.88,2.636-1.965,3.263l-36.619,21.142c-1.085,0.626-1.965,0.182-1.965-0.994
					C192.872,292.853,193.752,291.392,194.837,290.766z"/>
			</g>
			<g id="XMLID_3017_">
				<path id="XMLID_3018_" style="fill:#FAFAFA;" d="M194.837,290.766l12.977-7.497c1.085-0.626,1.965-0.181,1.964,0.994
					c0,1.176-0.88,2.637-1.965,3.263l-12.976,7.497c-1.085,0.626-1.965,0.182-1.965-0.994
					C192.872,292.853,193.752,291.392,194.837,290.766z"/>
			</g>
			<g id="XMLID_3015_">
				<path id="XMLID_3016_" style="fill:#F0F0F0;" d="M194.837,324.799l36.619-21.142c1.085-0.626,1.965-0.181,1.965,0.994
					c0,1.175-0.88,2.636-1.965,3.263l-36.619,21.142c-1.085,0.626-1.965,0.181-1.965-0.994
					C192.872,326.886,193.752,325.425,194.837,324.799z"/>
			</g>
			<g id="XMLID_3013_">
				<path id="XMLID_3014_" style="fill:#FAFAFA;" d="M194.837,324.799l32.934-19.014c1.085-0.626,1.964-0.181,1.964,0.994
					c0,1.176-0.88,2.637-1.965,3.263l-32.933,19.013c-1.085,0.626-1.965,0.181-1.965-0.994
					C192.872,326.886,193.752,325.425,194.837,324.799z"/>
			</g>
			<g id="XMLID_3011_">
				<path id="XMLID_3012_" style="fill:#F5F5F5;" d="M323.612,45.958l-82.819,47.815v221.341l82.82-47.816
					c1.085-0.627,1.965-2.15,1.965-3.403l-0.001-216.802C325.577,45.84,324.697,45.332,323.612,45.958z"/>
			</g>
			<g id="XMLID_3009_">
				<polygon id="XMLID_3010_" style="fill:#EBEBEB;" points="240.793,102.287 240.794,119.313 233.42,127.826 240.792,127.827 
					240.793,144.853 318.204,100.159 318.204,57.593 				"/>
			</g>
			<g id="XMLID_2993_">
				<path id="XMLID_2994_" style="fill:#FAFAFA;" d="M250.916,102.879l31.361-18.107c1.519-0.877,2.751-0.166,2.751,1.588v0.032
					c0,1.754-1.232,3.887-2.751,4.764l-31.361,18.107c-1.519,0.877-2.751,0.166-2.751-1.588v-0.033
					C248.165,105.889,249.397,103.756,250.916,102.879z"/>
			</g>
			<g id="XMLID_2991_">
				<path id="XMLID_2992_" style="fill:#FAFAFA;" d="M249.148,116.618l60.702-35.046c0.543-0.313,0.982-0.091,0.982,0.497
					c0,0.588-0.44,1.318-0.982,1.631l-60.702,35.046c-0.542,0.313-0.982,0.091-0.982-0.497
					C248.165,117.662,248.605,116.932,249.148,116.618z"/>
			</g>
			<g id="XMLID_2989_">
				<path id="XMLID_2990_" style="fill:#FAFAFA;" d="M249.148,123.003l60.702-35.046c0.543-0.313,0.982-0.091,0.982,0.497
					s-0.44,1.318-0.982,1.631l-60.702,35.046c-0.542,0.313-0.982,0.091-0.982-0.497S248.605,123.316,249.148,123.003z"/>
			</g>
			<g id="XMLID_2987_">
				<path id="XMLID_2988_" style="fill:#FAFAFA;" d="M249.148,129.387l60.702-35.046c0.543-0.313,0.982-0.091,0.982,0.497
					s-0.44,1.318-0.982,1.631l-60.702,35.046c-0.542,0.313-0.982,0.091-0.982-0.497
					C248.165,130.431,248.605,129.701,249.148,129.387z"/>
			</g>
			<g id="XMLID_2951_">
				<g id="XMLID_2981_">
					<g id="XMLID_2985_">
						<path id="XMLID_2986_" style="fill:#FFFFFF;" d="M251.435,147.241l4.229-2.442c0.868-0.501,1.572-0.095,1.572,0.908v4.883
							c0,1.002-0.704,2.221-1.572,2.722l-4.229,2.441c-0.868,0.501-1.572,0.095-1.572-0.907v-4.883
							C249.863,148.961,250.567,147.742,251.435,147.241z"/>
					</g>
					<g id="XMLID_2982_">
						<path id="XMLID_2984_" style="fill:#E0E0E0;" d="M262.887,142.757L288.447,128c1.085-0.627,1.965-0.182,1.965,0.994
							c0,1.175-0.88,2.636-1.965,3.263l-25.561,14.757c-1.085,0.626-1.965,0.182-1.965-0.994S261.802,143.384,262.887,142.757z"/>
					</g>
				</g>
				<g id="XMLID_2970_">
					<path id="XMLID_2978_" style="fill:#E0E0E0;" d="M250.846,162.487l64.388-37.181c0.543-0.313,0.982-0.091,0.982,0.497
						c0,0.588-0.44,1.318-0.982,1.631l-64.388,37.181c-0.543,0.313-0.982,0.091-0.982-0.497
						C249.863,163.531,250.303,162.801,250.846,162.487z"/>
				</g>
				<g id="XMLID_2957_">
					<path id="XMLID_2969_" style="fill:#E0E0E0;" d="M250.846,168.872l64.388-37.181c0.543-0.313,0.982-0.091,0.982,0.497
						c0,0.588-0.44,1.318-0.982,1.631L250.846,171c-0.543,0.313-0.982,0.091-0.982-0.497
						C249.863,169.915,250.303,169.185,250.846,168.872z"/>
				</g>
				<g id="XMLID_2954_">
					<path id="XMLID_2955_" style="fill:#E0E0E0;" d="M250.846,175.256l64.388-37.181c0.543-0.313,0.982-0.091,0.982,0.497
						c0,0.588-0.44,1.318-0.982,1.631l-64.388,37.181c-0.543,0.313-0.982,0.091-0.982-0.497
						C249.863,176.3,250.303,175.57,250.846,175.256z"/>
				</g>
				<g id="XMLID_2952_">
					<path id="XMLID_2953_" style="fill:#E0E0E0;" d="M250.846,181.659l64.388-37.181c0.543-0.313,0.982-0.091,0.982,0.497
						c0,0.588-0.44,1.318-0.982,1.631l-64.388,37.181c-0.543,0.313-0.982,0.091-0.982-0.497
						C249.863,182.703,250.303,181.973,250.846,181.659z"/>
				</g>
			</g>
			<g id="XMLID_2935_">
				<g id="XMLID_2946_">
					<g id="XMLID_2949_">
						<path id="XMLID_2950_" style="fill:#FFFFFF;" d="M251.435,194.063l4.229-2.442c0.868-0.501,1.572-0.095,1.572,0.908v4.883
							c0,1.002-0.704,2.221-1.572,2.723l-4.229,2.441c-0.868,0.501-1.572,0.095-1.572-0.908v-4.883
							C249.863,195.783,250.567,194.564,251.435,194.063z"/>
					</g>
					<g id="XMLID_2947_">
						<path id="XMLID_2948_" style="fill:#E0E0E0;" d="M262.887,189.58l25.56-14.757c1.085-0.627,1.965-0.182,1.965,0.994
							s-0.88,2.636-1.965,3.263l-25.561,14.757c-1.085,0.626-1.965,0.181-1.965-0.994
							C260.922,191.667,261.802,190.206,262.887,189.58z"/>
					</g>
				</g>
				<g id="XMLID_2944_">
					<path id="XMLID_2945_" style="fill:#E0E0E0;" d="M250.846,209.31l64.388-37.181c0.543-0.313,0.982-0.091,0.982,0.497
						c0,0.588-0.44,1.318-0.982,1.631l-64.388,37.181c-0.543,0.313-0.982,0.091-0.982-0.497
						C249.863,210.353,250.303,209.623,250.846,209.31z"/>
				</g>
				<g id="XMLID_2942_">
					<path id="XMLID_2943_" style="fill:#E0E0E0;" d="M250.846,215.694l64.388-37.181c0.543-0.313,0.982-0.091,0.982,0.497
						c0,0.588-0.44,1.318-0.982,1.631l-64.388,37.181c-0.543,0.313-0.982,0.091-0.982-0.497
						C249.863,216.738,250.303,216.008,250.846,215.694z"/>
				</g>
				<g id="XMLID_2940_">
					<path id="XMLID_2941_" style="fill:#E0E0E0;" d="M250.846,222.079l64.388-37.181c0.543-0.313,0.982-0.091,0.982,0.497
						c0,0.588-0.44,1.318-0.982,1.631l-64.388,37.181c-0.543,0.313-0.982,0.091-0.982-0.497
						C249.863,223.122,250.303,222.392,250.846,222.079z"/>
				</g>
				<g id="XMLID_2937_">
					<path id="XMLID_2938_" style="fill:#E0E0E0;" d="M250.846,228.482l64.388-37.181c0.543-0.313,0.982-0.091,0.982,0.497
						c0,0.588-0.44,1.318-0.982,1.631l-64.388,37.181c-0.543,0.313-0.982,0.091-0.982-0.497
						C249.863,229.525,250.303,228.795,250.846,228.482z"/>
				</g>
			</g>
			<g id="XMLID_2876_">
				<g id="XMLID_2918_">
					<g id="XMLID_2933_">
						<path id="XMLID_2934_" style="fill:#FFFFFF;" d="M257.456,237.818l4.229-2.442c0.868-0.501,1.572-0.095,1.572,0.908v4.883
							c0,1.002-0.704,2.221-1.572,2.722l-4.229,2.442c-0.868,0.501-1.572,0.095-1.572-0.908v-4.883
							C255.884,239.538,256.588,238.319,257.456,237.818z"/>
					</g>
					<g id="XMLID_2919_">
						<path id="XMLID_2921_" style="fill:#E0E0E0;" d="M250.846,254.405l17.45-10.073c0.543-0.313,0.982-0.091,0.982,0.497
							c0,0.588-0.44,1.318-0.982,1.631l-17.45,10.073c-0.543,0.313-0.982,0.091-0.982-0.497
							C249.863,255.449,250.303,254.718,250.846,254.405z"/>
					</g>
				</g>
				<g id="XMLID_2905_">
					<g id="XMLID_2911_">
						<path id="XMLID_2916_" style="fill:#FFFFFF;" d="M280.926,224.257l4.229-2.442c0.868-0.501,1.572-0.095,1.572,0.908v4.883
							c0,1.002-0.704,2.221-1.572,2.722l-4.229,2.442c-0.868,0.501-1.572,0.095-1.572-0.908v-4.883
							C279.354,225.977,280.058,224.758,280.926,224.257z"/>
					</g>
					<g id="XMLID_2907_">
						<path id="XMLID_2910_" style="fill:#E0E0E0;" d="M274.315,240.844l17.45-10.073c0.543-0.313,0.982-0.091,0.982,0.497
							c0,0.588-0.44,1.318-0.982,1.631l-17.45,10.073c-0.542,0.313-0.982,0.091-0.982-0.497
							C273.333,241.888,273.773,241.158,274.315,240.844z"/>
					</g>
				</g>
				<g id="XMLID_2878_">
					<g id="XMLID_2902_">
						<path id="XMLID_2904_" style="fill:#FFFFFF;" d="M304.395,210.696l4.229-2.442c0.868-0.501,1.572-0.095,1.572,0.908v4.883
							c0,1.002-0.704,2.221-1.572,2.722l-4.229,2.441c-0.868,0.501-1.572,0.095-1.572-0.907v-4.883
							C302.824,212.416,303.527,211.197,304.395,210.696z"/>
					</g>
					<g id="XMLID_2899_">
						<path id="XMLID_2900_" style="fill:#E0E0E0;" d="M297.785,227.284l17.45-10.073c0.543-0.313,0.982-0.091,0.982,0.497
							c0,0.588-0.44,1.318-0.982,1.631l-17.45,10.073c-0.543,0.313-0.983,0.091-0.983-0.497
							C296.802,228.327,297.242,227.597,297.785,227.284z"/>
					</g>
					<g id="XMLID_2897_">
						<path id="XMLID_2898_" style="fill:#E0E0E0;" d="M250.846,258.562l17.45-10.073c0.543-0.313,0.982-0.091,0.982,0.497
							c0,0.588-0.44,1.318-0.982,1.631l-17.45,10.073c-0.543,0.313-0.982,0.091-0.982-0.497S250.303,258.875,250.846,258.562z"/>
					</g>
					<g id="XMLID_2895_">
						<path id="XMLID_2896_" style="fill:#E0E0E0;" d="M274.315,245.001l17.45-10.073c0.543-0.313,0.982-0.091,0.982,0.497
							c0,0.588-0.44,1.318-0.982,1.631l-17.45,10.073c-0.542,0.313-0.982,0.091-0.982-0.497
							C273.333,246.044,273.773,245.314,274.315,245.001z"/>
					</g>
					<g id="XMLID_2892_">
						<path id="XMLID_2894_" style="fill:#E0E0E0;" d="M297.785,231.44l17.45-10.073c0.543-0.313,0.982-0.091,0.982,0.497
							s-0.44,1.318-0.982,1.631l-17.45,10.073c-0.543,0.313-0.983,0.091-0.983-0.497
							C296.802,232.484,297.242,231.753,297.785,231.44z"/>
					</g>
					<g id="XMLID_2888_">
						<path id="XMLID_2890_" style="fill:#E0E0E0;" d="M250.846,262.718l17.45-10.073c0.543-0.313,0.982-0.091,0.982,0.497
							s-0.44,1.318-0.982,1.631l-17.45,10.073c-0.543,0.313-0.982,0.091-0.982-0.497S250.303,263.031,250.846,262.718z"/>
					</g>
					<g id="XMLID_2884_">
						<path id="XMLID_2886_" style="fill:#E0E0E0;" d="M274.315,249.157l17.45-10.073c0.543-0.313,0.982-0.091,0.982,0.497
							c0,0.588-0.44,1.318-0.982,1.631l-17.45,10.073c-0.542,0.313-0.982,0.091-0.982-0.497
							C273.333,250.201,273.773,249.47,274.315,249.157z"/>
					</g>
					<g id="XMLID_2880_">
						<path id="XMLID_2882_" style="fill:#E0E0E0;" d="M297.785,235.596l17.45-10.073c0.543-0.313,0.982-0.091,0.982,0.497
							c0,0.588-0.44,1.318-0.982,1.631l-17.45,10.073c-0.543,0.313-0.983,0.091-0.983-0.497
							C296.802,236.64,297.242,235.91,297.785,235.596z"/>
					</g>
				</g>
			</g>
			<g id="XMLID_2815_">
				<g id="XMLID_2866_">
					<g id="XMLID_2872_">
						<path id="XMLID_2874_" style="fill:#FFFFFF;" d="M257.456,272.772l4.229-2.442c0.868-0.501,1.572-0.095,1.572,0.908v4.883
							c0,1.002-0.704,2.221-1.572,2.723l-4.229,2.441c-0.868,0.501-1.572,0.095-1.572-0.908v-4.883
							C255.884,274.492,256.588,273.273,257.456,272.772z"/>
					</g>
					<g id="XMLID_2868_">
						<path id="XMLID_2870_" style="fill:#E0E0E0;" d="M250.846,289.359l17.45-10.073c0.543-0.313,0.982-0.091,0.982,0.497
							c0,0.588-0.44,1.318-0.982,1.631l-17.45,10.073c-0.543,0.313-0.982,0.091-0.982-0.497
							C249.863,290.403,250.303,289.673,250.846,289.359z"/>
					</g>
				</g>
				<g id="XMLID_2852_">
					<g id="XMLID_2858_">
						<path id="XMLID_2865_" style="fill:#FFFFFF;" d="M280.926,259.211l4.229-2.442c0.868-0.501,1.572-0.095,1.572,0.908v4.883
							c0,1.002-0.704,2.221-1.572,2.723l-4.229,2.441c-0.868,0.501-1.572,0.095-1.572-0.908v-4.883
							C279.354,260.931,280.058,259.712,280.926,259.211z"/>
					</g>
					<g id="XMLID_2854_">
						<path id="XMLID_2856_" style="fill:#E0E0E0;" d="M274.315,275.799l17.45-10.073c0.543-0.313,0.982-0.091,0.982,0.497
							c0,0.588-0.44,1.318-0.982,1.631l-17.45,10.073c-0.542,0.313-0.982,0.091-0.982-0.497
							C273.333,276.842,273.773,276.112,274.315,275.799z"/>
					</g>
				</g>
				<g id="XMLID_2816_">
					<g id="XMLID_2849_">
						<path id="XMLID_2851_" style="fill:#FFFFFF;" d="M304.395,245.65l4.229-2.442c0.868-0.501,1.572-0.095,1.572,0.908v4.883
							c0,1.002-0.704,2.221-1.572,2.722l-4.229,2.441c-0.868,0.501-1.572,0.095-1.572-0.907v-4.883
							C302.824,247.37,303.527,246.151,304.395,245.65z"/>
					</g>
					<g id="XMLID_2846_">
						<path id="XMLID_2847_" style="fill:#E0E0E0;" d="M297.785,262.238l17.45-10.073c0.543-0.313,0.982-0.091,0.982,0.497
							c0,0.588-0.44,1.318-0.982,1.631l-17.45,10.073c-0.543,0.313-0.983,0.091-0.983-0.497
							C296.802,263.281,297.242,262.551,297.785,262.238z"/>
					</g>
					<g id="XMLID_2842_">
						<path id="XMLID_2844_" style="fill:#E0E0E0;" d="M250.846,293.516l17.45-10.073c0.543-0.313,0.982-0.091,0.982,0.497
							s-0.44,1.318-0.982,1.631l-17.45,10.073c-0.543,0.313-0.982,0.091-0.982-0.497
							C249.863,294.56,250.303,293.829,250.846,293.516z"/>
					</g>
					<g id="XMLID_2838_">
						<path id="XMLID_2840_" style="fill:#E0E0E0;" d="M274.315,279.955l17.45-10.073c0.543-0.313,0.982-0.091,0.982,0.497
							c0,0.588-0.44,1.318-0.982,1.631l-17.45,10.073c-0.542,0.313-0.982,0.091-0.982-0.497S273.773,280.268,274.315,279.955z"/>
					</g>
					<g id="XMLID_2836_">
						<path id="XMLID_2837_" style="fill:#E0E0E0;" d="M297.785,266.394l17.45-10.073c0.543-0.313,0.982-0.091,0.982,0.497
							c0,0.588-0.44,1.318-0.982,1.631l-17.45,10.073c-0.543,0.313-0.983,0.091-0.983-0.497
							C296.802,267.438,297.242,266.707,297.785,266.394z"/>
					</g>
					<g id="XMLID_2834_">
						<path id="XMLID_2835_" style="fill:#E0E0E0;" d="M250.846,297.672l17.45-10.073c0.543-0.313,0.982-0.091,0.982,0.497
							c0,0.588-0.44,1.318-0.982,1.631l-17.45,10.073c-0.543,0.313-0.982,0.091-0.982-0.497S250.303,297.985,250.846,297.672z"/>
					</g>
					<g id="XMLID_2819_">
						<path id="XMLID_2833_" style="fill:#E0E0E0;" d="M274.315,284.111l17.45-10.073c0.543-0.313,0.982-0.091,0.982,0.497
							c0,0.588-0.44,1.318-0.982,1.631l-17.45,10.073c-0.542,0.313-0.982,0.091-0.982-0.497S273.773,284.425,274.315,284.111z"/>
					</g>
					<g id="XMLID_2817_">
						<path id="XMLID_2818_" style="fill:#E0E0E0;" d="M297.785,270.551l17.45-10.073c0.543-0.313,0.982-0.091,0.982,0.497
							c0,0.588-0.44,1.318-0.982,1.631l-17.45,10.073c-0.543,0.313-0.983,0.091-0.983-0.497
							C296.802,271.594,297.242,270.864,297.785,270.551z"/>
					</g>
				</g>
			</g>
			<g id="XMLID_2811_">
				<path id="XMLID_2814_" style="fill:#FAFAFA;" d="M211.304,119.369c10.203-5.891,18.475-1.115,18.475,10.666
					c0,11.782-8.271,26.108-18.475,31.999c-10.203,5.891-18.475,1.115-18.475-10.666S201.1,125.259,211.304,119.369z"/>
				<path id="XMLID_2813_" style="fill:#E0E0E0;" d="M211.304,128.641c3.31-1.911,5.994-0.362,5.994,3.46
					c0,3.822-2.684,8.471-5.994,10.382c-3.31,1.911-5.994,0.362-5.994-3.46C205.31,135.2,207.994,130.552,211.304,128.641z"/>
				<path id="XMLID_2812_" style="fill:#E0E0E0;" d="M222.986,149.022c0-6.28-4.409-8.825-9.847-5.685l-3.4,1.963
					c-5.438,3.14-9.847,10.776-9.847,17.056v1.69c3.143,1.044,7.101,0.478,11.411-2.011c4.433-2.559,8.499-6.713,11.682-11.556
					V149.022z"/>
			</g>
			<g id="XMLID_2808_">
				<path id="XMLID_2810_" style="fill:#F5F5F5;" d="M200.366,192.375l25.56-14.758c1.085-0.626,1.965-0.181,1.965,0.994
					c0,1.175-0.88,2.636-1.965,3.263l-25.561,14.757c-1.085,0.626-1.965,0.182-1.965-0.994
					C198.401,194.462,199.281,193.001,200.366,192.375z"/>
			</g>
		</g>
		<g id="XMLID_986_">
			<g id="XMLID_3069_">
				<g id="XMLID_3071_">
					<polygon id="XMLID_3076_" style="fill:#27DEBF;" points="119.066,406.679 151.561,265.965 329.434,163.27 296.939,303.984 
											"/>
				</g>
			</g>
			<polygon id="XMLID_20_" style="opacity:0.1;" points="208.429,355.085 208.429,233.132 328.957,163.877 296.939,303.984 			"/>
		</g>
	</g>
	<polygon id="Shadow_17_" style="fill:#E0E0E0;" points="239.08,372.788 208.429,355.085 265.512,322.374 	"/>
	<g id="Document">
		<g id="XMLID_2780_">
			<path id="XMLID_3031_" style="fill:#EBEBEB;" d="M239.08,372.788c-1.018-0.588-1.843-2.08-1.843-3.333V152.653
				c0-1.253,0.88-2.777,1.965-3.403l136.147-78.605c1.085-0.626,2.79-0.658,3.808-0.07c1.018,0.588,1.843,2.08,1.843,3.333
				l0.001,216.803c0,1.253-0.88,2.776-1.965,3.403l-136.148,78.605C241.803,373.345,240.098,373.376,239.08,372.788z"/>
		</g>
		<g id="XMLID_2779_">
			<path id="XMLID_3029_" style="fill:#455A64;" d="M240.921,156.769l55.295-36.181l-3.687-2.128l-53.328,30.789
				c-1.085,0.626-1.965,2.15-1.965,3.403v1.989L240.921,156.769z"/>
		</g>
		<g id="XMLID_2778_">
			<path id="XMLID_3027_" style="fill:#263238;" d="M259.353,163.154l-21.541-12.437c-0.355,0.616-0.575,1.31-0.575,1.936v216.803
				c0,1.253,0.825,2.745,1.843,3.333c1.018,0.588,2.723,0.556,3.808-0.07l16.465-9.506L259.353,163.154z"/>
		</g>
		<g id="XMLID_2777_">
			<path id="XMLID_3025_" style="fill:#37474F;" d="M242.888,372.718l136.148-78.605c1.085-0.627,1.965-2.15,1.965-3.403L381,73.907
				c0-1.253-0.88-1.761-1.965-1.134l-136.148,78.605c-1.085,0.626-1.965,2.15-1.965,3.403l0.001,216.803
				C240.923,372.837,241.803,373.345,242.888,372.718z"/>
		</g>
		<g id="XMLID_2724_">
			<defs>
				<path id="XMLID_2939_" d="M266.726,146.068c-10.18,5.74-18.432,20.033-18.432,31.924c0,11.891,8.252,16.766,18.432,10.889
					c10.179-5.877,18.431-20.17,18.431-31.924C285.157,145.203,276.905,140.328,266.726,146.068z"/>
			</defs>
			<clipPath id="XMLID_00000104671684873549333240000014454599052834905262_">
				<use xlink:href="#XMLID_2939_"  style="overflow:visible;"/>
			</clipPath>
		</g>
		<g id="XMLID_2723_">
			<path id="XMLID_2936_" style="fill:#E0E0E0;" d="M252.224,204.858l32.69-18.873c2.17-1.253,3.93-0.363,3.93,1.988
				c0,2.351-1.759,5.272-3.93,6.525l-32.69,18.874c-2.17,1.253-3.93,0.363-3.93-1.988S250.054,206.111,252.224,204.858z"/>
		</g>
		<g id="XMLID_2719_">
			<g id="XMLID_2721_">
				<path id="XMLID_2932_" style="fill:#27DEBF;" d="M249.867,239.364l4.229-2.442c0.868-0.501,1.572-0.095,1.572,0.907v4.883
					c0,1.002-0.704,2.221-1.572,2.722l-4.229,2.442c-0.868,0.501-1.572,0.095-1.572-0.908v-4.883
					C248.295,241.084,248.999,239.865,249.867,239.364z"/>
			</g>
			<g id="XMLID_2720_">
				<path id="XMLID_2920_" style="fill:#E0E0E0;" d="M261.319,234.88l25.56-14.757c1.085-0.627,1.965-0.182,1.965,0.994
					s-0.88,2.636-1.965,3.263l-25.56,14.757c-1.085,0.626-1.965,0.181-1.965-0.994C259.354,236.967,260.233,235.507,261.319,234.88z
					"/>
			</g>
		</g>
		<g id="XMLID_2696_">
			<g id="XMLID_2718_">
				<path id="XMLID_2917_" style="fill:#27DEBF;" d="M249.867,256.391l4.229-2.442c0.868-0.501,1.572-0.095,1.572,0.908v4.883
					c0,1.003-0.704,2.221-1.572,2.723l-4.229,2.441c-0.868,0.501-1.572,0.095-1.572-0.908v-4.883
					C248.295,258.111,248.999,256.892,249.867,256.391z"/>
			</g>
			<g id="XMLID_2717_">
				<path id="XMLID_2915_" style="fill:#E0E0E0;" d="M261.319,251.907l25.56-14.758c1.085-0.626,1.965-0.182,1.965,0.994
					c0,1.176-0.88,2.636-1.965,3.263l-25.56,14.757c-1.085,0.626-1.965,0.181-1.965-0.994
					C259.354,253.994,260.233,252.533,261.319,251.907z"/>
			</g>
		</g>
		<g id="XMLID_2693_">
			<g id="XMLID_2695_">
				<path id="XMLID_2909_" style="fill:#27DEBF;" d="M249.867,273.416l4.229-2.442c0.868-0.501,1.572-0.095,1.572,0.908v4.883
					c0,1.002-0.704,2.221-1.572,2.723l-4.229,2.441c-0.868,0.501-1.572,0.095-1.572-0.908v-4.883
					C248.295,275.136,248.999,273.917,249.867,273.416z"/>
			</g>
			<g id="XMLID_2694_">
				<path id="XMLID_2906_" style="fill:#E0E0E0;" d="M261.319,268.932l25.56-14.758c1.085-0.626,1.965-0.182,1.965,0.994
					c0,1.175-0.88,2.636-1.965,3.263l-25.56,14.757c-1.085,0.626-1.965,0.181-1.965-0.994
					C259.354,271.02,260.233,269.559,261.319,268.932z"/>
			</g>
		</g>
		<g id="XMLID_2690_">
			<g id="XMLID_2692_">
				<path id="XMLID_2903_" style="fill:#27DEBF;" d="M249.867,290.486l4.229-2.441c0.868-0.501,1.572-0.095,1.572,0.907v4.883
					c0,1.003-0.704,2.221-1.572,2.723L249.867,299c-0.868,0.501-1.572,0.095-1.572-0.908v-4.883
					C248.295,292.207,248.999,290.988,249.867,290.486z"/>
			</g>
			<g id="XMLID_2691_">
				<path id="XMLID_2901_" style="fill:#E0E0E0;" d="M261.319,286.003l25.56-14.757c1.085-0.627,1.965-0.182,1.965,0.994
					c0,1.175-0.88,2.636-1.965,3.263l-25.56,14.757c-1.085,0.626-1.965,0.181-1.965-0.994
					C259.354,288.09,260.233,286.629,261.319,286.003z"/>
			</g>
		</g>
		<g id="XMLID_2686_">
			<path id="XMLID_2893_" style="fill:#E0E0E0;" d="M250.26,326.084l18.188-10.501c1.085-0.626,1.965-0.182,1.965,0.994
				c0,1.175-0.88,2.636-1.965,3.263l-18.188,10.501c-1.085,0.626-1.965,0.181-1.965-0.994
				C248.295,328.171,249.175,326.71,250.26,326.084z"/>
		</g>
		<g id="XMLID_2685_">
			<path id="XMLID_2891_" style="fill:#FAFAFA;" d="M250.26,334.597l36.619-21.142c1.085-0.626,1.965-0.182,1.965,0.994
				c0,1.175-0.879,2.636-1.965,3.263l-36.619,21.142c-1.085,0.627-1.965,0.182-1.965-0.994
				C248.295,336.684,249.175,335.224,250.26,334.597z"/>
		</g>
		<g id="XMLID_2684_">
			<path id="XMLID_2889_" style="fill:#27DEBF;" d="M250.26,334.597l25.561-14.758c1.085-0.626,1.965-0.181,1.964,0.994
				c0,1.176-0.88,2.636-1.965,3.263l-25.56,14.757c-1.085,0.627-1.965,0.182-1.965-0.994
				C248.295,336.684,249.175,335.224,250.26,334.597z"/>
		</g>
		<g id="XMLID_2683_">
			<path id="XMLID_2887_" style="fill:#E0E0E0;" d="M250.26,343.1l18.188-10.501c1.085-0.627,1.965-0.182,1.965,0.994
				c0,1.175-0.88,2.636-1.965,3.263l-18.188,10.501c-1.085,0.627-1.965,0.182-1.965-0.994
				C248.295,345.188,249.175,343.727,250.26,343.1z"/>
		</g>
		<g id="XMLID_2736_">
			<path id="XMLID_2737_" style="fill:#E0E0E0;" d="M250.26,309.068l18.188-10.501c1.085-0.626,1.965-0.181,1.965,0.994
				c0,1.175-0.88,2.636-1.965,3.263l-18.188,10.501c-1.085,0.626-1.965,0.182-1.965-0.994
				C248.295,311.155,249.175,309.694,250.26,309.068z"/>
		</g>
		<g id="XMLID_2734_">
			<path id="XMLID_2735_" style="fill:#FAFAFA;" d="M250.26,317.581l36.619-21.142c1.085-0.626,1.965-0.181,1.965,0.994
				c0,1.175-0.879,2.636-1.965,3.263l-36.619,21.142c-1.085,0.626-1.965,0.181-1.965-0.994
				C248.295,319.668,249.175,318.207,250.26,317.581z"/>
		</g>
		<g id="XMLID_2731_">
			<path id="XMLID_2733_" style="fill:#27DEBF;" d="M250.26,317.581l12.977-7.497c1.085-0.626,1.965-0.181,1.964,0.994
				c0,1.176-0.88,2.637-1.965,3.263l-12.976,7.497c-1.085,0.626-1.965,0.181-1.965-0.994
				C248.295,319.668,249.175,318.207,250.26,317.581z"/>
		</g>
		<g id="XMLID_2655_">
			<path id="XMLID_2885_" style="fill:#FAFAFA;" d="M250.26,351.613l36.619-21.142c1.085-0.626,1.965-0.181,1.965,0.994
				c0,1.176-0.879,2.636-1.965,3.263L250.26,355.87c-1.085,0.626-1.965,0.181-1.965-0.994
				C248.295,353.701,249.175,352.24,250.26,351.613z"/>
		</g>
		<g id="XMLID_2653_">
			<path id="XMLID_2883_" style="fill:#27DEBF;" d="M250.26,351.613l32.934-19.014c1.085-0.626,1.965-0.181,1.964,0.994
				c0,1.176-0.88,2.637-1.965,3.263L250.26,355.87c-1.085,0.626-1.965,0.181-1.965-0.994
				C248.295,353.701,249.175,352.24,250.26,351.613z"/>
		</g>
		<g id="XMLID_2630_">
			<path id="XMLID_2881_" style="fill:#FAFAFA;" d="M379.035,72.773l-82.819,47.815v221.341l82.82-47.816
				c1.085-0.627,1.965-2.15,1.965-3.403L381,73.907C381,72.654,380.12,72.146,379.035,72.773z"/>
		</g>
		<g id="XMLID_2629_">
			<polygon id="XMLID_2879_" style="fill:#27DEBF;" points="296.216,129.102 296.216,146.128 288.843,154.641 296.215,154.641 
				296.216,171.667 373.627,126.974 373.627,84.408 			"/>
		</g>
		<g id="XMLID_2596_">
			<path id="XMLID_2877_" style="fill:#FAFAFA;" d="M306.339,129.694l31.361-18.106c1.519-0.877,2.751-0.166,2.751,1.588v0.032
				c0,1.754-1.232,3.887-2.751,4.764l-31.361,18.107c-1.519,0.877-2.751,0.166-2.751-1.588v-0.033
				C303.589,132.704,304.82,130.571,306.339,129.694z"/>
		</g>
		<g id="XMLID_2595_">
			<path id="XMLID_2875_" style="fill:#FAFAFA;" d="M304.571,143.433l60.702-35.046c0.543-0.313,0.982-0.091,0.982,0.497
				c0,0.588-0.44,1.318-0.982,1.631l-60.702,35.046c-0.543,0.313-0.982,0.091-0.982-0.497
				C303.588,144.477,304.028,143.746,304.571,143.433z"/>
		</g>
		<g id="XMLID_2594_">
			<path id="XMLID_2873_" style="fill:#FAFAFA;" d="M304.571,149.817l60.702-35.046c0.543-0.313,0.982-0.091,0.982,0.497
				s-0.44,1.318-0.982,1.631l-60.702,35.046c-0.543,0.313-0.982,0.091-0.982-0.497S304.028,150.131,304.571,149.817z"/>
		</g>
		<g id="XMLID_2593_">
			<path id="XMLID_2871_" style="fill:#FAFAFA;" d="M304.571,156.202l60.702-35.046c0.543-0.313,0.982-0.091,0.982,0.497
				s-0.44,1.318-0.982,1.631l-60.702,35.046c-0.543,0.313-0.982,0.091-0.982-0.497C303.588,157.246,304.028,156.515,304.571,156.202
				z"/>
		</g>
		<g id="XMLID_2517_">
			<g id="XMLID_2573_">
				<g id="XMLID_2592_">
					<path id="XMLID_2869_" style="fill:#27DEBF;" d="M306.858,174.055l4.229-2.442c0.868-0.501,1.572-0.095,1.572,0.908v4.883
						c0,1.002-0.704,2.221-1.572,2.723l-4.229,2.441c-0.868,0.501-1.572,0.095-1.572-0.908v-4.883
						C305.286,175.775,305.99,174.557,306.858,174.055z"/>
				</g>
				<g id="XMLID_2574_">
					<path id="XMLID_2867_" style="fill:#455A64;" d="M318.31,169.572l25.561-14.757c1.085-0.626,1.965-0.182,1.965,0.994
						c0,1.176-0.88,2.636-1.965,3.263l-25.561,14.757c-1.085,0.626-1.965,0.182-1.965-0.994S317.225,170.198,318.31,169.572z"/>
				</g>
			</g>
			<g id="XMLID_2572_">
				<path id="XMLID_2860_" style="fill:#455A64;" d="M306.268,189.302l64.388-37.181c0.543-0.313,0.983-0.091,0.983,0.497
					c0,0.588-0.44,1.318-0.983,1.631l-64.388,37.181c-0.543,0.313-0.982,0.091-0.982-0.497
					C305.286,190.346,305.726,189.615,306.268,189.302z"/>
			</g>
			<g id="XMLID_2571_">
				<path id="XMLID_2857_" style="fill:#455A64;" d="M306.268,195.686l64.388-37.181c0.543-0.313,0.983-0.091,0.983,0.497
					c0,0.588-0.44,1.318-0.983,1.631l-64.388,37.181c-0.543,0.313-0.982,0.091-0.982-0.497
					C305.286,196.73,305.726,196,306.268,195.686z"/>
			</g>
			<g id="XMLID_2570_">
				<path id="XMLID_2855_" style="fill:#455A64;" d="M306.268,202.071l64.388-37.181c0.543-0.313,0.983-0.091,0.983,0.497
					c0,0.588-0.44,1.318-0.983,1.631l-64.388,37.181c-0.543,0.313-0.982,0.091-0.982-0.497
					C305.286,203.115,305.726,202.384,306.268,202.071z"/>
			</g>
			<g id="XMLID_2518_">
				<path id="XMLID_2853_" style="fill:#455A64;" d="M306.268,208.474l64.388-37.181c0.543-0.313,0.983-0.091,0.983,0.497
					c0,0.588-0.44,1.318-0.983,1.631l-64.388,37.181c-0.543,0.313-0.982,0.091-0.982-0.497
					C305.286,209.517,305.726,208.787,306.268,208.474z"/>
			</g>
		</g>
		<g id="XMLID_2504_">
			<g id="XMLID_2514_">
				<g id="XMLID_2516_">
					<path id="XMLID_2850_" style="fill:#27DEBF;" d="M306.858,220.878l4.229-2.442c0.868-0.501,1.572-0.095,1.572,0.908v4.883
						c0,1.002-0.704,2.221-1.572,2.722l-4.229,2.441c-0.868,0.501-1.572,0.095-1.572-0.907V223.6
						C305.286,222.598,305.99,221.379,306.858,220.878z"/>
				</g>
				<g id="XMLID_2515_">
					<path id="XMLID_2848_" style="fill:#455A64;" d="M318.31,216.394l25.561-14.757c1.085-0.626,1.965-0.181,1.965,0.994
						c0,1.175-0.88,2.636-1.965,3.263l-25.561,14.757c-1.085,0.627-1.965,0.182-1.965-0.994
						C316.345,218.482,317.225,217.021,318.31,216.394z"/>
				</g>
			</g>
			<g id="XMLID_2513_">
				<path id="XMLID_2845_" style="fill:#455A64;" d="M306.268,236.124l64.388-37.181c0.543-0.313,0.983-0.091,0.983,0.497
					c0,0.588-0.44,1.318-0.983,1.631l-64.388,37.181c-0.543,0.313-0.982,0.091-0.982-0.497
					C305.286,237.168,305.726,236.438,306.268,236.124z"/>
			</g>
			<g id="XMLID_2512_">
				<path id="XMLID_2843_" style="fill:#455A64;" d="M306.268,242.509l64.388-37.181c0.543-0.313,0.983-0.091,0.983,0.497
					c0,0.588-0.44,1.318-0.983,1.631l-64.388,37.181c-0.543,0.313-0.982,0.091-0.982-0.497
					C305.286,243.553,305.726,242.822,306.268,242.509z"/>
			</g>
			<g id="XMLID_2506_">
				<path id="XMLID_2841_" style="fill:#455A64;" d="M306.268,248.893l64.388-37.181c0.543-0.313,0.983-0.091,0.983,0.497
					c0,0.588-0.44,1.318-0.983,1.631l-64.388,37.181c-0.543,0.313-0.982,0.091-0.982-0.497
					C305.286,249.937,305.726,249.207,306.268,248.893z"/>
			</g>
			<g id="XMLID_2505_">
				<path id="XMLID_2839_" style="fill:#455A64;" d="M306.268,255.296l64.388-37.181c0.543-0.313,0.983-0.091,0.983,0.497
					c0,0.588-0.44,1.318-0.983,1.631l-64.388,37.181c-0.543,0.313-0.982,0.091-0.982-0.497
					C305.286,256.34,305.726,255.61,306.268,255.296z"/>
			</g>
		</g>
		<g id="XMLID_2336_">
			<g id="XMLID_2383_">
				<g id="XMLID_2386_">
					<path id="XMLID_2809_" style="fill:#27DEBF;" d="M312.879,264.632l4.229-2.442c0.868-0.501,1.572-0.095,1.572,0.908v4.883
						c0,1.002-0.704,2.221-1.572,2.723l-4.229,2.441c-0.868,0.501-1.572,0.095-1.572-0.908v-4.883
						C311.307,266.352,312.011,265.133,312.879,264.632z"/>
				</g>
				<g id="XMLID_2384_">
					<path id="XMLID_2807_" style="fill:#455A64;" d="M306.268,281.22l17.45-10.073c0.543-0.313,0.982-0.091,0.982,0.497
						c0,0.588-0.44,1.318-0.982,1.631l-17.45,10.073c-0.543,0.313-0.982,0.091-0.982-0.497S305.726,281.533,306.268,281.22z"/>
				</g>
			</g>
			<g id="XMLID_2380_">
				<g id="XMLID_2382_">
					<path id="XMLID_2793_" style="fill:#27DEBF;" d="M336.349,251.071l4.229-2.442c0.868-0.501,1.572-0.095,1.572,0.908v4.883
						c0,1.002-0.704,2.221-1.572,2.722l-4.229,2.441c-0.868,0.501-1.572,0.095-1.572-0.907v-4.883
						C334.777,252.791,335.481,251.572,336.349,251.071z"/>
				</g>
				<g id="XMLID_2381_">
					<path id="XMLID_2791_" style="fill:#455A64;" d="M329.738,267.659l17.45-10.073c0.543-0.313,0.982-0.091,0.982,0.497
						s-0.44,1.318-0.982,1.631l-17.45,10.073c-0.543,0.313-0.982,0.091-0.982-0.497
						C328.756,268.703,329.196,267.972,329.738,267.659z"/>
				</g>
			</g>
			<g id="XMLID_2337_">
				<g id="XMLID_2379_">
					<path id="XMLID_2788_" style="fill:#27DEBF;" d="M359.818,237.51l4.229-2.442c0.868-0.501,1.572-0.095,1.572,0.908v4.883
						c0,1.002-0.704,2.221-1.572,2.723l-4.229,2.441c-0.868,0.501-1.572,0.095-1.572-0.908v-4.883
						C358.246,239.231,358.95,238.012,359.818,237.51z"/>
				</g>
				<g id="XMLID_2378_">
					<path id="XMLID_2786_" style="fill:#455A64;" d="M353.208,254.098l17.45-10.073c0.542-0.313,0.982-0.091,0.982,0.497
						c0,0.588-0.44,1.318-0.982,1.631l-17.45,10.073c-0.542,0.313-0.982,0.091-0.982-0.497
						C352.225,255.142,352.665,254.411,353.208,254.098z"/>
				</g>
				<g id="XMLID_2500_">
					<path id="XMLID_2501_" style="fill:#455A64;" d="M306.268,285.376l17.45-10.073c0.543-0.313,0.982-0.091,0.982,0.497
						c0,0.588-0.44,1.318-0.982,1.631l-17.45,10.073c-0.543,0.313-0.982,0.091-0.982-0.497S305.726,285.689,306.268,285.376z"/>
				</g>
				<g id="XMLID_2466_">
					<path id="XMLID_2479_" style="fill:#455A64;" d="M329.738,271.815l17.45-10.073c0.543-0.313,0.982-0.091,0.982,0.497
						s-0.44,1.318-0.982,1.631l-17.45,10.073c-0.543,0.313-0.982,0.091-0.982-0.497
						C328.756,272.859,329.196,272.129,329.738,271.815z"/>
				</g>
				<g id="XMLID_2426_">
					<path id="XMLID_2427_" style="fill:#455A64;" d="M353.208,258.255l17.45-10.073c0.542-0.313,0.982-0.091,0.982,0.497
						c0,0.588-0.44,1.318-0.982,1.631l-17.45,10.073c-0.542,0.313-0.982,0.091-0.982-0.497
						C352.225,259.298,352.665,258.568,353.208,258.255z"/>
				</g>
				<g id="XMLID_2738_">
					<path id="XMLID_2739_" style="fill:#455A64;" d="M306.268,289.533l17.45-10.073c0.543-0.313,0.982-0.091,0.982,0.497
						c0,0.588-0.44,1.318-0.982,1.631l-17.45,10.073c-0.543,0.313-0.982,0.091-0.982-0.497
						C305.286,290.576,305.726,289.846,306.268,289.533z"/>
				</g>
				<g id="XMLID_2688_">
					<path id="XMLID_2689_" style="fill:#455A64;" d="M329.738,275.972l17.45-10.073c0.543-0.313,0.982-0.091,0.982,0.497
						s-0.44,1.318-0.982,1.631l-17.45,10.073c-0.543,0.313-0.982,0.091-0.982-0.497
						C328.756,277.015,329.196,276.285,329.738,275.972z"/>
				</g>
				<g id="XMLID_2502_">
					<path id="XMLID_2687_" style="fill:#455A64;" d="M353.208,262.411l17.45-10.073c0.542-0.313,0.982-0.091,0.982,0.497
						c0,0.588-0.44,1.318-0.982,1.631l-17.45,10.073c-0.542,0.313-0.982,0.091-0.982-0.497S352.665,262.724,353.208,262.411z"/>
				</g>
			</g>
		</g>
		<g id="XMLID_2740_">
			<g id="XMLID_2785_">
				<g id="XMLID_2790_">
					<path id="XMLID_2792_" style="fill:#27DEBF;" d="M312.879,299.586l4.229-2.442c0.868-0.501,1.572-0.095,1.572,0.907v4.883
						c0,1.002-0.704,2.221-1.572,2.723l-4.229,2.441c-0.868,0.501-1.572,0.095-1.572-0.908v-4.883
						C311.307,301.306,312.011,300.087,312.879,299.586z"/>
				</g>
				<g id="XMLID_2787_">
					<path id="XMLID_2789_" style="fill:#455A64;" d="M306.268,316.174l17.45-10.073c0.543-0.313,0.982-0.091,0.982,0.497
						s-0.44,1.318-0.982,1.631l-17.45,10.073c-0.543,0.313-0.982,0.091-0.982-0.497
						C305.286,317.218,305.726,316.487,306.268,316.174z"/>
				</g>
			</g>
			<g id="XMLID_2776_">
				<g id="XMLID_2783_">
					<path id="XMLID_2784_" style="fill:#27DEBF;" d="M336.349,286.026l4.229-2.442c0.868-0.501,1.572-0.095,1.572,0.908v4.883
						c0,1.002-0.704,2.221-1.572,2.722l-4.229,2.442c-0.868,0.501-1.572,0.095-1.572-0.908v-4.883
						C334.777,287.746,335.481,286.527,336.349,286.026z"/>
				</g>
				<g id="XMLID_2781_">
					<path id="XMLID_2782_" style="fill:#455A64;" d="M329.738,302.613l17.45-10.073c0.543-0.313,0.982-0.091,0.982,0.497
						c0,0.588-0.44,1.318-0.982,1.631l-17.45,10.073c-0.543,0.313-0.982,0.091-0.982-0.497
						C328.756,303.657,329.196,302.927,329.738,302.613z"/>
				</g>
			</g>
			<g id="XMLID_2741_">
				<g id="XMLID_2774_">
					<path id="XMLID_2775_" style="fill:#27DEBF;" d="M359.818,272.465l4.229-2.442c0.868-0.501,1.572-0.095,1.572,0.907v4.883
						c0,1.002-0.704,2.221-1.572,2.722l-4.229,2.442c-0.868,0.501-1.572,0.095-1.572-0.908v-4.883
						C358.246,274.185,358.95,272.966,359.818,272.465z"/>
				</g>
				<g id="XMLID_2772_">
					<path id="XMLID_2773_" style="fill:#455A64;" d="M353.208,289.052l17.45-10.073c0.542-0.313,0.982-0.091,0.982,0.497
						c0,0.588-0.44,1.318-0.982,1.631l-17.45,10.073c-0.542,0.313-0.982,0.091-0.982-0.497
						C352.225,290.096,352.665,289.366,353.208,289.052z"/>
				</g>
				<g id="XMLID_2770_">
					<path id="XMLID_2771_" style="fill:#455A64;" d="M306.268,320.331l17.45-10.073c0.543-0.313,0.982-0.091,0.982,0.497
						c0,0.588-0.44,1.318-0.982,1.631l-17.45,10.073c-0.543,0.313-0.982,0.091-0.982-0.497
						C305.286,321.374,305.726,320.644,306.268,320.331z"/>
				</g>
				<g id="XMLID_2768_">
					<path id="XMLID_2769_" style="fill:#455A64;" d="M329.738,306.77l17.45-10.073c0.543-0.313,0.982-0.091,0.982,0.497
						c0,0.588-0.44,1.318-0.982,1.631l-17.45,10.073c-0.543,0.313-0.982,0.091-0.982-0.497
						C328.756,307.813,329.196,307.083,329.738,306.77z"/>
				</g>
				<g id="XMLID_2750_">
					<path id="XMLID_2751_" style="fill:#455A64;" d="M353.208,293.209l17.45-10.073c0.542-0.313,0.982-0.091,0.982,0.497
						c0,0.588-0.44,1.318-0.982,1.631l-17.45,10.073c-0.542,0.313-0.982,0.091-0.982-0.497
						C352.225,294.252,352.665,293.522,353.208,293.209z"/>
				</g>
				<g id="XMLID_2748_">
					<path id="XMLID_2749_" style="fill:#455A64;" d="M306.268,324.487l17.45-10.073c0.543-0.313,0.982-0.091,0.982,0.497
						c0,0.588-0.44,1.318-0.982,1.631l-17.45,10.073c-0.543,0.313-0.982,0.091-0.982-0.497S305.726,324.8,306.268,324.487z"/>
				</g>
				<g id="XMLID_2746_">
					<path id="XMLID_2747_" style="fill:#455A64;" d="M329.738,310.926l17.45-10.073c0.543-0.313,0.982-0.091,0.982,0.497
						s-0.44,1.318-0.982,1.631l-17.45,10.073c-0.543,0.313-0.982,0.091-0.982-0.497C328.756,311.97,329.196,311.239,329.738,310.926
						z"/>
				</g>
				<g id="XMLID_2744_">
					<path id="XMLID_2745_" style="fill:#455A64;" d="M353.208,297.365l17.45-10.073c0.542-0.313,0.982-0.091,0.982,0.497
						s-0.44,1.318-0.982,1.631l-17.45,10.073c-0.542,0.313-0.982,0.091-0.982-0.497
						C352.225,298.409,352.665,297.678,353.208,297.365z"/>
				</g>
			</g>
		</g>
		<g id="XMLID_2726_">
			<path id="XMLID_2730_" style="fill:#E0E0E0;" d="M266.727,146.184c10.204-5.891,18.475-1.115,18.475,10.666
				c0,11.782-8.271,26.108-18.475,31.999c-10.203,5.891-18.474,1.115-18.474-10.666S256.523,152.074,266.727,146.184z"/>
			<path id="XMLID_2729_" style="fill:#FAFAFA;" d="M266.727,155.456c3.31-1.911,5.994-0.362,5.994,3.46
				c0,3.823-2.684,8.471-5.994,10.382c-3.31,1.911-5.994,0.362-5.994-3.46C260.733,162.014,263.417,157.367,266.727,155.456z"/>
			<path id="XMLID_2728_" style="fill:#FAFAFA;" d="M278.409,175.837c0-6.28-4.409-8.825-9.847-5.685l-3.4,1.963
				c-5.438,3.14-9.847,10.776-9.847,17.056v1.69c3.144,1.044,7.101,0.478,11.411-2.011c4.433-2.559,8.499-6.713,11.682-11.556
				V175.837z"/>
		</g>
		<g id="XMLID_2722_">
			<path id="XMLID_2805_" style="fill:#E0E0E0;" d="M255.789,219.19l25.56-14.757c1.085-0.627,1.965-0.182,1.965,0.994
				c0,1.176-0.88,2.636-1.965,3.263l-25.561,14.757c-1.085,0.626-1.965,0.181-1.965-0.994
				C253.824,221.277,254.704,219.816,255.789,219.19z"/>
		</g>
	</g>
</g>
</svg>
