<?xml version="1.0" encoding="UTF-8" standalone="no"?>
<!-- Created with Inkscape (http://www.inkscape.org/) -->

<svg
   version="1.1"
   id="svg2"
   width="2653.3333"
   height="1400"
   viewBox="0 0 2653.3333 1400"
   sodipodi:docname="flag-eu.eps"
   xmlns:inkscape="http://www.inkscape.org/namespaces/inkscape"
   xmlns:sodipodi="http://sodipodi.sourceforge.net/DTD/sodipodi-0.dtd"
   xmlns="http://www.w3.org/2000/svg"
   xmlns:svg="http://www.w3.org/2000/svg">
  <defs
     id="defs6" />
  <sodipodi:namedview
     id="namedview4"
     pagecolor="#ffffff"
     bordercolor="#000000"
     borderopacity="0.25"
     inkscape:showpageshadow="2"
     inkscape:pageopacity="0.0"
     inkscape:pagecheckerboard="0"
     inkscape:deskcolor="#d1d1d1" />
  <g
     id="g8"
     inkscape:groupmode="layer"
     inkscape:label="ink_ext_XXXXXX"
     transform="matrix(1.3333333,0,0,-1.3333333,0,1400)">
    <g
       id="g10"
       transform="scale(0.1)">
      <path
         d="M 19900,0 H 0 V 10500 H 19900 V 0"
         style="fill:#314199;fill-opacity:1;fill-rule:nonzero;stroke:none"
         id="path12" />
      <path
         d="m 9946.17,2262.83 138.13,-408.85 420.7,0.44 -298.6,-226.03 82.1,-438.84 -342.33,248.95 -343.42,-242.27 83.16,432.16 -295.49,227.45 h 420.26 l 135.49,406.99"
         style="fill:#f8ec26;fill-opacity:1;fill-rule:nonzero;stroke:none"
         id="path14" />
      <path
         d="m 9946.17,9364.49 138.13,-408.85 420.7,0.44 -298.6,-226.03 82.1,-438.81 -342.33,248.96 -343.42,-242.32 83.16,432.17 -295.49,227.45 h 420.26 l 135.49,406.99"
         style="fill:#f8ec26;fill-opacity:1;fill-rule:nonzero;stroke:none"
         id="path16" />
      <path
         d="m 11656.7,8907.81 138.1,-408.85 420.8,0.44 -298.6,-226.03 82,-438.81 -342.3,248.95 -343.4,-242.31 83.2,432.17 -295.5,227.45 h 420.3 l 135.4,406.99"
         style="fill:#f8ec26;fill-opacity:1;fill-rule:nonzero;stroke:none"
         id="path18" />
      <path
         d="m 8153.03,8907.81 138.08,-408.85 420.77,0.44 -298.59,-226.03 82.03,-438.81 -342.29,248.95 -343.42,-242.31 83.14,432.17 -295.48,227.45 h 420.27 l 135.49,406.99"
         style="fill:#f8ec26;fill-opacity:1;fill-rule:nonzero;stroke:none"
         id="path20" />
      <path
         d="m 11656.7,2742.56 138.1,-408.89 420.8,0.48 -298.6,-226.07 82,-438.81 -342.3,248.95 -343.4,-242.31 83.2,432.17 -295.5,227.49 h 420.3 l 135.4,406.99"
         style="fill:#f8ec26;fill-opacity:1;fill-rule:nonzero;stroke:none"
         id="path22" />
      <path
         d="m 8153.03,2742.56 138.08,-408.89 420.77,0.48 -298.59,-226.07 82.03,-438.81 -342.29,248.95 -343.42,-242.31 83.14,432.17 -295.48,227.49 h 420.27 l 135.49,406.99"
         style="fill:#f8ec26;fill-opacity:1;fill-rule:nonzero;stroke:none"
         id="path24" />
      <path
         d="m 6842.88,7567.58 138.09,-408.84 420.78,0.43 -298.61,-226.03 82.02,-438.85 -342.28,248.96 -343.42,-242.28 83.15,432.17 -295.49,227.46 h 420.27 l 135.49,406.98"
         style="fill:#f8ec26;fill-opacity:1;fill-rule:nonzero;stroke:none"
         id="path26" />
      <path
         d="m 13009.8,7567.58 138.1,-408.84 420.8,0.43 -298.7,-226.03 82.1,-438.85 -342.3,248.96 -343.4,-242.28 83.1,432.17 -295.5,227.46 h 420.3 l 135.5,406.98"
         style="fill:#f8ec26;fill-opacity:1;fill-rule:nonzero;stroke:none"
         id="path28" />
      <path
         d="m 6842.88,4022.98 138.09,-408.85 420.78,0.44 -298.61,-226.03 82.02,-438.85 -342.28,249 -343.42,-242.32 83.15,432.17 -295.49,227.45 h 420.27 l 135.49,406.99"
         style="fill:#f8ec26;fill-opacity:1;fill-rule:nonzero;stroke:none"
         id="path30" />
      <path
         d="m 13009.8,4022.98 138.1,-408.85 420.8,0.44 -298.7,-226.03 82.1,-438.85 -342.3,249 -343.4,-242.32 83.1,432.17 -295.5,227.45 h 420.3 l 135.5,406.99"
         style="fill:#f8ec26;fill-opacity:1;fill-rule:nonzero;stroke:none"
         id="path32" />
      <path
         d="m 6435.88,5808.62 138.08,-408.88 420.79,0.47 -298.61,-226.06 82.01,-438.82 -342.27,248.95 -343.42,-242.27 83.15,432.14 -295.5,227.44 h 420.28 l 135.49,407.03"
         style="fill:#f8ec26;fill-opacity:1;fill-rule:nonzero;stroke:none"
         id="path34" />
      <path
         d="m 13461,5808.62 138.1,-408.88 420.8,0.47 -298.6,-226.06 82,-438.82 -342.3,248.95 -343.4,-242.27 83.1,432.14 -295.4,227.44 h 420.2 l 135.5,407.03"
         style="fill:#f8ec26;fill-opacity:1;fill-rule:nonzero;stroke:none"
         id="path36" />
    </g>
  </g>
</svg>
